<?xml version="1.0" encoding="UTF-8" standalone="no"?>
<!-- Created with Inkscape (http://www.inkscape.org/) -->

<svg
   xmlns:dc="http://purl.org/dc/elements/1.1/"
   xmlns:cc="http://creativecommons.org/ns#"
   xmlns:rdf="http://www.w3.org/1999/02/22-rdf-syntax-ns#"
   xmlns:svg="http://www.w3.org/2000/svg"
   xmlns="http://www.w3.org/2000/svg"
   xmlns:sodipodi="http://sodipodi.sourceforge.net/DTD/sodipodi-0.dtd"
   xmlns:inkscape="http://www.inkscape.org/namespaces/inkscape"
   width="210mm"
   height="297mm"
   id="svg2887"
   version="1.1"
   inkscape:version="0.47 r22583"
   sodipodi:docname="tour_noir.svg">
  <defs
     id="defs2889">
    <inkscape:perspective
       sodipodi:type="inkscape:persp3d"
       inkscape:vp_x="0 : 526.18109 : 1"
       inkscape:vp_y="0 : 1000 : 0"
       inkscape:vp_z="744.09448 : 526.18109 : 1"
       inkscape:persp3d-origin="372.04724 : 350.78739 : 1"
       id="perspective2895" />
    <inkscape:perspective
       id="perspective2905"
       inkscape:persp3d-origin="0.5 : 0.33333333 : 1"
       inkscape:vp_z="1 : 0.5 : 1"
       inkscape:vp_y="0 : 1000 : 0"
       inkscape:vp_x="0 : 0.5 : 1"
       sodipodi:type="inkscape:persp3d" />
  </defs>
  <sodipodi:namedview
     id="base"
     pagecolor="#ffffff"
     bordercolor="#666666"
     borderopacity="1.0"
     inkscape:pageopacity="0.0"
     inkscape:pageshadow="2"
     inkscape:zoom="0.175"
     inkscape:cx="-106.92187"
     inkscape:cy="608.19171"
     inkscape:document-units="px"
     inkscape:current-layer="layer1"
     showgrid="false"
     inkscape:window-width="654"
     inkscape:window-height="500"
     inkscape:window-x="0"
     inkscape:window-y="49"
     inkscape:window-maximized="0" />
  <metadata
     id="metadata2892">
    <rdf:RDF>
      <cc:Work
         rdf:about="">
        <dc:format>image/svg+xml</dc:format>
        <dc:type
           rdf:resource="http://purl.org/dc/dcmitype/StillImage" />
        <dc:title />
      </cc:Work>
    </rdf:RDF>
  </metadata>
  <g
     inkscape:label="Calque 1"
     inkscape:groupmode="layer"
     id="layer1">
    <path
       sodipodi:nodetypes="cccccccscccccsssscccccsscccccssssscccccscccsccccc"
       id="path3183"
       style="fill:#000000;display:inline"
       d="m 80.627619,871.39508 c -7.966162,-4.3446 -8.8374,-9.52679 -8.248812,-49.07738 l 0.542011,-36.42757 4.928107,-4.23562 c 4.455717,-3.82955 6.517638,-4.23551 21.515722,-4.23551 l 16.587593,0 0,-31.17584 c 0,-27.80747 0.3736,-31.74505 3.39817,-36.445 1.86554,-2.89801 18.43327,-21.07665 36.81727,-40.39677 l 33.42547,-35.12782 0.0441,-124.70334 0.0441,-124.70333 -41.3377,-31.43602 c -22.73577,-17.28983 -42.09348,-32.84764 -43.01693,-34.57316 -0.97641,-1.8241 -1.67874,-28.9512 -1.67874,-64.81329 0,-67.46748 0.28633,-69.54982 10.12048,-73.62334 3.58815,-1.48632 20.35372,-1.93187 58.87522,-1.56465 66.69209,0.6363 61.57964,-1.8548 62.43739,30.41583 l 0.58222,21.91097 29.71523,0 29.71524,0 0,-18.49843 c 0,-21.47704 2.33989,-29.04082 9.95966,-32.19704 3.76809,-1.5609 22.38841,-1.98914 70.42464,-1.61995 79.96413,0.61411 73.01433,-2.24529 73.88189,30.40445 l 0.58221,21.91097 29.71549,0 29.71523,0 0,-19.40744 c 0,-21.80097 1.99767,-27.99017 10.12048,-31.35471 3.58816,-1.48632 20.35397,-1.93187 58.87547,-1.56465 53.37274,0.50902 53.89441,0.54912 57.85641,4.51215 3.99485,3.99537 3.99877,4.05442 4.50058,68.2719 0.41502,53.11296 0.0686,64.9223 -1.9837,68.01299 -1.36814,2.05702 -20.75306,17.57145 -43.0792,34.47675 l -40.5932,30.73667 0,124.70333 0,124.70334 35.31969,37.72925 c 19.42585,20.75102 36.0208,39.5738 36.87806,41.82845 0.85751,2.25458 1.55862,17.4102 1.55862,33.67898 l 0,29.57955 17.51864,0.60307 c 26.56221,0.91564 25.51276,-1.0609 25.51276,48.02633 0,38.68114 -0.0686,39.4961 -4.00049,43.42145 l -4.00049,4.0007 -289.31587,0.37917 c -247.54109,0.32255 -289.978258,0 -293.90351,-2.12456 l -0.0098,-8.8e-4 z" />
  </g>
</svg>
