<?xml version="1.0" encoding="UTF-8" standalone="no"?>
<!-- Created with Inkscape (http://www.inkscape.org/) -->

<svg
   xmlns:dc="http://purl.org/dc/elements/1.1/"
   xmlns:cc="http://creativecommons.org/ns#"
   xmlns:rdf="http://www.w3.org/1999/02/22-rdf-syntax-ns#"
   xmlns:svg="http://www.w3.org/2000/svg"
   xmlns="http://www.w3.org/2000/svg"
   xmlns:sodipodi="http://sodipodi.sourceforge.net/DTD/sodipodi-0.dtd"
   xmlns:inkscape="http://www.inkscape.org/namespaces/inkscape"
   width="300"
   height="300"
   id="svg2985"
   version="1.1"
   inkscape:version="0.48.2 r9819"
   sodipodi:docname="wolbrowser_completed_inverted.svg"
   inkscape:export-filename="C:\Users\Leonard\Downloads\BitBucket\wolwp\WolBrowser\WolBrowser\Images\wolbrowser_completed_inverted.png"
   inkscape:export-xdpi="90"
   inkscape:export-ydpi="90">
  <defs
     id="defs2987" />
  <sodipodi:namedview
     id="base"
     pagecolor="#206fb3"
     bordercolor="#666666"
     borderopacity="1.0"
     inkscape:pageopacity="1"
     inkscape:pageshadow="2"
     inkscape:zoom="1"
     inkscape:cx="157.75264"
     inkscape:cy="154.66676"
     inkscape:current-layer="layer1"
     showgrid="true"
     inkscape:document-units="px"
     inkscape:grid-bbox="true"
     inkscape:window-width="1920"
     inkscape:window-height="1018"
     inkscape:window-x="-8"
     inkscape:window-y="1192"
     inkscape:window-maximized="1"
     inkscape:snap-global="true" />
  <metadata
     id="metadata2990">
    <rdf:RDF>
      <cc:Work
         rdf:about="">
        <dc:format>image/svg+xml</dc:format>
        <dc:type
           rdf:resource="http://purl.org/dc/dcmitype/StillImage" />
        <dc:title></dc:title>
      </cc:Work>
    </rdf:RDF>
  </metadata>
  <g
     id="layer1"
     inkscape:label="Layer 1"
     inkscape:groupmode="layer"
     transform="translate(0,236)">
    <rect
       style="fill:#ffffff;fill-opacity:1;stroke:#ffffff;stroke-width:1.33523786000000010;stroke-linecap:round;stroke-linejoin:miter;stroke-miterlimit:4;stroke-opacity:1;stroke-dasharray:none"
       id="rect3830"
       width="124.43681"
       height="169.74622"
       x="87.781609"
       y="-131.40154"
       ry="10" />
    <rect
       style="fill:#ffffff;fill-opacity:1;stroke:#ffffff;stroke-width:1.22599995000000010;stroke-linecap:round;stroke-linejoin:miter;stroke-miterlimit:4;stroke-opacity:1;stroke-dasharray:none"
       id="rect3834"
       width="55.540024"
       height="68.910767"
       x="46.613003"
       y="-210.39931"
       ry="10" />
    <rect
       style="fill:#ffffff;fill-opacity:1;stroke:#ffffff;stroke-width:1.22599995000000010;stroke-linecap:round;stroke-linejoin:miter;stroke-miterlimit:4;stroke-opacity:1;stroke-dasharray:none"
       id="rect3834-4"
       width="55.540024"
       height="68.910767"
       x="122.22998"
       y="-210.39931"
       ry="10" />
    <rect
       style="fill:#ffffff;fill-opacity:1;stroke:#ffffff;stroke-width:1.22599995000000010;stroke-linecap:round;stroke-linejoin:miter;stroke-miterlimit:4;stroke-opacity:1;stroke-dasharray:none"
       id="rect3834-4-0"
       width="55.540024"
       height="68.910767"
       x="197.84697"
       y="-210.39931"
       ry="10" />
    <rect
       style="fill:#ffffff;fill-opacity:1;stroke:#ffffff;stroke-width:1.21989703000000000;stroke-linecap:round;stroke-linejoin:miter;stroke-miterlimit:4;stroke-opacity:1;stroke-dasharray:none"
       id="rect3898"
       width="205.93433"
       height="26"
       x="47.032837"
       y="-190.31506" />
    <path
       style="fill:none;stroke:#ffffff;stroke-width:1.00118588999999990px;stroke-linecap:butt;stroke-linejoin:miter;stroke-opacity:1"
       d="m 48.875,-145.125 38.654018,38.5625 124.983412,0 37.93357,-37.84375"
       id="path3011"
       inkscape:connector-curvature="0" />
    <path
       style="fill:#ffffff;fill-opacity:1;stroke:#ffffff;stroke-width:0.30649999;stroke-miterlimit:4;stroke-opacity:1;stroke-dasharray:none"
       d="m 102.58233,71.955114 c -0.48983,4.96342 0.0708,10.076146 -0.64063,15.046875 -1.14332,4.335482 -5.415038,7.896185 -10.023436,7.445312 -12.754487,0.133236 -25.510572,-0.03071 -38.265625,-0.03906 -1.301788,1.00609 1.425239,2.175977 1.946535,3.14966 10.358967,10.358969 20.717935,20.717929 31.076903,31.076899 1.623425,0.22425 0.565177,-2.53927 0.901945,-3.59336 0.202737,-4.48544 -0.143743,-9.02778 0.504305,-13.47695 1.05926,-3.42517 4.13679,-6.11277 7.554687,-6.9069 35.351426,0.0146 70.703916,-0.23209 106.054686,0.0163 2.2307,-0.15802 4.47077,0.22444 6.27344,1.61719 2.61031,1.83815 4.53313,4.89941 4.24558,8.20287 0.26875,4.66388 0.0855,9.397 0.42495,14.02259 1.2406,0.59223 2.15344,-1.7365 3.2184,-2.35658 10.30005,-10.30004 20.60009,-20.60009 30.90013,-30.900127 0.2215,-1.632937 -2.54506,-0.525753 -3.60154,-0.840234 -12.21553,-0.02913 -24.43588,0.239702 -36.64846,-0.02695 -5.0788,-0.370594 -8.98368,-5.363568 -8.74219,-10.359375 -0.22354,-3.983595 0.051,-8.030107 -0.21353,-11.977266 -1.30798,-0.633466 -3.13992,-0.09353 -4.64584,-0.272734 -4.90139,0.07002 -9.86385,-0.139839 -14.72727,0.104163 -0.63603,1.391234 -0.0998,3.306655 -0.28325,4.895825 -0.21077,3.941819 0.47607,8.121655 -0.92698,11.875012 -1.6632,3.627813 -5.5223,6.205353 -9.57784,5.778638 -12.58277,0.15298 -25.16699,-0.02246 -37.75029,-0.02864 -3.30474,-1.211284 -6.22992,-3.737532 -7.09375,-7.226563 -0.75853,-4.269861 -0.22432,-8.712635 -0.39062,-13.046875 0.46105,-1.744205 -0.43068,-2.87553 -2.25,-2.351562 -5.7164,0.07043 -11.49405,-0.139778 -17.17258,0.104163 l -0.14773,0.06771 z"
       id="path3855"
       inkscape:connector-curvature="0"
       transform="translate(0,-236)" />
  </g>
</svg>
