<?xml version="1.0" encoding="UTF-8" standalone="no"?>
<!-- Created with Inkscape (http://www.inkscape.org/) -->

<svg
   xmlns:dc="http://purl.org/dc/elements/1.1/"
   xmlns:cc="http://creativecommons.org/ns#"
   xmlns:rdf="http://www.w3.org/1999/02/22-rdf-syntax-ns#"
   xmlns:svg="http://www.w3.org/2000/svg"
   xmlns="http://www.w3.org/2000/svg"
   xmlns:sodipodi="http://sodipodi.sourceforge.net/DTD/sodipodi-0.dtd"
   xmlns:inkscape="http://www.inkscape.org/namespaces/inkscape"
   width="300"
   height="300"
   id="svg2985"
   version="1.1"
   inkscape:version="0.48.2 r9819"
   sodipodi:docname="wolbrowser_completed.svg"
   inkscape:export-filename="C:\Users\Leonard\Downloads\BitBucket\wolwp\WolBrowser\WolBrowser\Images\wolbrowser_completed.png"
   inkscape:export-xdpi="90"
   inkscape:export-ydpi="90">
  <defs
     id="defs2987" />
  <sodipodi:namedview
     id="base"
     pagecolor="#ffffff"
     bordercolor="#666666"
     borderopacity="1.0"
     inkscape:pageopacity="0.0"
     inkscape:pageshadow="2"
     inkscape:zoom="2.8284271"
     inkscape:cx="68.989103"
     inkscape:cy="163.73489"
     inkscape:current-layer="layer1"
     showgrid="true"
     inkscape:document-units="px"
     inkscape:grid-bbox="true"
     inkscape:window-width="1920"
     inkscape:window-height="1018"
     inkscape:window-x="-8"
     inkscape:window-y="1192"
     inkscape:window-maximized="1"
     inkscape:snap-global="true" />
  <metadata
     id="metadata2990">
    <rdf:RDF>
      <cc:Work
         rdf:about="">
        <dc:format>image/svg+xml</dc:format>
        <dc:type
           rdf:resource="http://purl.org/dc/dcmitype/StillImage" />
        <dc:title></dc:title>
      </cc:Work>
    </rdf:RDF>
  </metadata>
  <g
     id="layer1"
     inkscape:label="Layer 1"
     inkscape:groupmode="layer"
     transform="translate(0,236)">
    <g
       id="g2989">
      <rect
         ry="10"
         y="-131.40154"
         x="87.781609"
         height="169.74622"
         width="124.43681"
         id="rect3830"
         style="fill:#206fb3;fill-opacity:1;stroke:#206fb3;stroke-width:1.33523786000000010;stroke-linecap:round;stroke-linejoin:miter;stroke-miterlimit:4;stroke-opacity:1;stroke-dasharray:none" />
      <rect
         ry="10"
         y="-210.39931"
         x="46.613003"
         height="68.910767"
         width="55.540024"
         id="rect3834"
         style="fill:#206fb3;fill-opacity:1;stroke:#206fb3;stroke-width:1.22599995000000010;stroke-linecap:round;stroke-linejoin:miter;stroke-miterlimit:4;stroke-opacity:1;stroke-dasharray:none" />
      <rect
         ry="10"
         y="-210.39931"
         x="122.22998"
         height="68.910767"
         width="55.540024"
         id="rect3834-4"
         style="fill:#206fb3;fill-opacity:1;stroke:#206fb3;stroke-width:1.22599995000000010;stroke-linecap:round;stroke-linejoin:miter;stroke-miterlimit:4;stroke-opacity:1;stroke-dasharray:none" />
      <rect
         ry="10"
         y="-210.39931"
         x="197.84697"
         height="68.910767"
         width="55.540024"
         id="rect3834-4-0"
         style="fill:#206fb3;fill-opacity:1;stroke:#206fb3;stroke-width:1.22599995000000010;stroke-linecap:round;stroke-linejoin:miter;stroke-miterlimit:4;stroke-opacity:1;stroke-dasharray:none" />
      <rect
         y="-190.31506"
         x="47.032837"
         height="26"
         width="205.93433"
         id="rect3898"
         style="fill:#206fb3;fill-opacity:1;stroke:#206fb3;stroke-width:1.21989703000000000;stroke-linecap:round;stroke-linejoin:miter;stroke-miterlimit:4;stroke-opacity:1;stroke-dasharray:none" />
      <path
         inkscape:connector-curvature="0"
         id="path3011"
         d="m 48.875,-145.125 38.654018,38.5625 124.983412,0 37.93357,-37.84375"
         style="fill:none;stroke:#206fb3;stroke-width:1.00118588999999990px;stroke-linecap:butt;stroke-linejoin:miter;stroke-opacity:1" />
      <path
         transform="translate(0,-236)"
         inkscape:connector-curvature="0"
         id="path3835"
         d="m 70.173443,111.53405 -16.525864,-16.528626 20.416362,0 20.416362,0 1.944544,-0.922478 c 2.239856,-1.062573 3.457094,-2.119565 4.689943,-4.072528 1.32222,-2.094521 1.67402,-4.503439 1.67402,-11.462629 l 0,-6.346558 9.33344,0 9.33344,0 0.13839,7.336233 c 0.12706,6.735823 0.20543,7.487095 0.95763,9.179576 1.01863,2.291966 3.55805,4.715118 5.87968,5.610472 1.65739,0.639184 2.88889,0.677912 21.5568,0.677912 18.6679,0 19.8994,-0.03873 21.55679,-0.677912 2.32163,-0.895354 4.86105,-3.318506 5.87968,-5.610472 0.7522,-1.692481 0.83057,-2.443753 0.95764,-9.179576 l 0.13838,-7.336233 9.30255,0 9.30254,0 0.1268,7.336233 c 0.11709,6.774345 0.19007,7.477415 0.95281,9.179576 1.02733,2.292633 3.5718,4.717815 5.88643,5.610472 1.65903,0.639816 2.89522,0.677912 21.99745,0.677912 l 20.23963,0 -16.52592,16.528626 c -9.08925,9.09074 -16.64587,16.52862 -16.79248,16.52862 -0.14662,0 -0.26658,-3.47184 -0.26658,-7.7152 0,-8.90588 -0.23287,-10.02595 -2.64138,-12.70481 -0.83362,-0.92717 -2.29064,-2.08156 -3.23784,-2.56531 l -1.72218,-0.87954 -55.15432,0 -55.154334,0 -1.65877,0.84787 c -2.0258,1.03548 -3.840512,2.86695 -4.940148,4.98576 -0.784993,1.51255 -0.830956,1.99628 -0.932254,9.81111 -0.0586,4.52106 -0.218337,8.22012 -0.354964,8.22012 -0.136627,0 -7.685051,-7.43788 -16.774277,-16.52862 l 0,0 z"
         style="fill:#206fb3;fill-opacity:1;stroke:#206fb3;stroke-width:0.43345645;stroke-miterlimit:4;stroke-opacity:1;stroke-dasharray:none" />
    </g>
  </g>
</svg>
